<svg xmlns="http://www.w3.org/2000/svg" viewBox="0 0 100 100" width="100" height="100">
  <rect width="100%" height="100%" fill="#000000" rx="24"/>
  <path d="M30.1 54.22L14.86 54.22Q13.54 54.22 12.64 55.15Q11.74 56.08 11.74 57.34L11.74 57.34L11.74 60.52L43.24 60.52L43.24 70L14.74 70L11.74 63.52L11.74 70L1.24 70L1.24 56.86Q1.24 54.16 2.26 51.76Q3.28 49.36 5.08 47.56Q6.88 45.76 9.28 44.74Q11.68 43.72 14.38 43.72L14.38 43.72L29.62 43.72Q30.94 43.72 31.84 42.82Q32.74 41.92 32.74 40.6L32.74 40.6Q32.74 39.28 31.84 38.38Q30.94 37.48 29.62 37.48L29.62 37.48L1.24 37.48L1.24 28L30.1 28Q32.8 28 35.2 29.02Q37.6 30.04 39.4 31.84Q41.2 33.64 42.22 36.01Q43.24 38.38 43.24 41.08L43.24 41.08Q43.24 43.78 42.22 46.18Q41.2 48.58 39.4 50.38Q37.6 52.18 35.2 53.2Q32.8 54.22 30.1 54.22L30.1 54.22" fill="#FFFFFF"/>
  <path d="M54.54 28L78.18 28Q81.78 28 85.68 28.81Q89.58 29.62 92.82 31.9Q96.06 34.18 98.16 38.29Q100.26 42.4 100.26 49L100.26 49Q100.26 53.38 99.3 56.68Q98.34 59.98 96.69 62.29Q95.04 64.6 92.82 66.1Q90.6 67.6 88.14 68.47Q85.68 69.34 83.1 69.67Q80.52 70 78.12 70L78.12 70L68.4 70L65.04 62.56L65.04 70L54.54 70L54.54 28M65.04 60.52L78.06 60.52Q80.34 60.52 82.26 60.04Q84.18 59.56 85.59 58.27Q87 56.98 87.78 54.73Q88.56 52.48 88.56 49L88.56 49Q88.56 45.52 87.78 43.27Q87 41.02 85.59 39.73Q84.18 38.44 82.26 37.96Q80.34 37.48 78.06 37.48L78.06 37.48L65.04 37.48L65.04 60.52" fill="#8B5CF6"/>
</svg>